PathFileType	4	(X/Y/Z)	C:\Users\Gabre\Documents\2-Sophmore\Autumn\ME 191\Nick_10292018\Nick_10292018\Upper Extremity\static_upper.trc																																																																			
DataRate	CameraRate	NumFrames	NumMarkers	Units	OrigDataRate	OrigDataStartFrame	OrigNumFrames																																																															
100	100	6	23	mm	100	190	253																																																															
Frame#	Time	Back_IMU_O			Back_IMU_D			Back_IMU_X			Back_IMU_Y			c7			aa			L.Acromion			ij			EpL			EpM			R.Radius			R.Ulna			R.Hand			Humerus_IMU_O			Humerus_IMU_D			Humerus_IMU_X			Humerus_IMU_Y			Forearm_IMU_O			Forearm_IMU_D			Forearm_IMU_X			Forearm_IMU_Y			Hand_IMU_O			Scapula_IMU_O		
		X1	Y1	Z1	X2	Y2	Z2	X3	Y3	Z3	X4	Y4	Z4	X5	Y5	Z5	X6	Y6	Z6	X7	Y7	Z7	X8	Y8	Z8	X9	Y9	Z9	X10	Y10	Z10	X11	Y11	Z11	X12	Y12	Z12	X13	Y13	Z13	X14	Y14	Z14	X15	Y15	Z15	X16	Y16	Z16	X17	Y17	Z17	X18	Y18	Z18	X19	Y19	Z19	X20	Y20	Z20	X21	Y21	Z21	X22	Y22	Z22	X23	Y23	Z23
																																																																						
190	1.89	-586.31763	502.23795	1011.45929	-612.04108	571.53357	900.14972	-596.38147	587.11218	1000.86212	-602.21729	487.95645	910.77966	-580.93677	548.16968	1025.15686	-457.591	405.78564	1009.20062	-507.67749	730.40985	977.26105	-409.29776	570.56171	985.13428	-156.19121	316.93793	956.89545	-157.30428	350.58264	884.73431	107.97792	400.30286	1011.17151	99.09029	339.41806	1026.22827	219.39613	395.45554	1020.72241	-339.51083	365.86792	1027.87878	-299.74973	293.55826	929.6189	-364.91583	295.73404	945.95496	-276.34918	361.68918	1010.27222	30.75374	407.46939	1015.02228	77.34907	309.29285	1023.83087	31.16905	308.255	1017.74036	76.96976	407.47049	1021.44751	173.51874	377.3512	1039.95129	-485.72775	368.43903	1012.13214
191	1.9	-586.31311	502.22333	1011.47253	-612.01331	571.50415	900.06628	-596.3894	587.13477	1000.78558	-602.12476	487.89624	910.74011	-580.97278	548.18579	1025.10168	-457.67441	405.81522	1009.26416	-507.72589	730.36249	977.29382	-409.22238	570.57159	985.37225	-156.25691	316.8974	956.94025	-157.08958	350.42908	884.89325	107.9956	400.30725	1011.13812	99.02122	339.34961	1026.33765	219.44901	395.36414	1020.80493	-339.51489	365.7739	1027.87878	-299.79312	293.53064	929.72577	-364.88232	295.70944	945.9588	-276.45804	361.70157	1010.18213	30.72913	407.43359	1015.01611	77.32109	309.27966	1023.94452	31.15756	308.31299	1017.80713	76.94918	407.51334	1021.39368	173.47237	377.38702	1039.927	-485.83905	368.32852	1012.25922
192	1.91	-586.32617	502.13754	1011.40399	-611.83368	571.5061	900.00958	-596.3501	587.13458	1000.72797	-602.1452	487.94394	910.72583	-580.92206	548.12018	1025.05896	-457.67441	405.81522	1009.26416	-507.70996	730.3219	977.21649	-409.17493	570.69946	985.20007	-156.33916	316.9433	956.98395	-157.12132	350.47214	884.8526	108.07973	400.26093	1011.22736	98.99406	339.29794	1026.38159	219.38011	395.35559	1020.80939	-339.58218	365.66483	1027.91187	-299.79312	293.53064	929.72577	-365.09506	295.76318	946.04132	-276.38593	361.603	1010.37598	30.69312	407.40369	1015.06195	77.33688	309.20715	1024.05188	31.17858	308.24597	1017.92993	77.16093	407.18097	1021.76117	173.48946	377.38977	1039.9657	-485.87	368.36227	1012.21375
193	1.92	-586.46838	502.21405	1011.46979	-611.9895	571.50403	900.02814	-596.37158	587.11761	1000.74988	-602.20807	487.92383	910.75208	-581.00964	548.21545	1025.08215	-457.65283	405.81128	1009.24872	-507.78894	730.25519	977.22827	-409.13852	570.71509	985.28284	-156.2896	316.89001	957.11316	-157.1252	350.40573	884.85992	107.99979	400.27097	1011.26447	99.02936	339.29678	1026.4657	219.3905	395.32993	1020.87134	-339.58725	365.67856	1027.9259	-299.82632	293.53671	929.87006	-365.09506	295.76318	946.04132	-276.35934	361.51852	1010.40247	30.72288	407.40353	1015.06989	77.34685	309.17926	1024.29346	31.03655	308.41687	1017.83978	76.95147	407.50876	1021.61914	173.50429	377.33102	1039.99792	-485.86063	368.36975	1012.16278
194	1.93	-586.3692	502.12112	1011.42224	-611.97827	571.50397	900.01337	-596.3858	587.06274	1000.72382	-602.23413	487.87613	910.67078	-580.96362	548.11096	1025.06775	-457.66101	405.81412	1009.27051	-507.80594	730.26721	977.25262	-409.15585	570.87158	985.30591	-156.30569	316.92224	957.12042	-157.15564	350.21658	884.98474	107.98698	400.21579	1011.38977	99.08106	339.28647	1026.53564	219.33168	395.33182	1020.85846	-339.5412	365.83475	1027.8844	-299.89697	293.57086	929.79437	-365.2363	295.72443	946.05621	-276.42972	361.63681	1010.38495	30.74018	407.37057	1015.11456	77.33111	309.19464	1024.26501	30.97324	308.35181	1018.00647	77.15369	407.19449	1021.93488	173.52968	377.29181	1040.11194	-485.89474	368.31281	1012.26984
195	1.94	-586.38843	502.12149	1011.43097	-612.00421	571.50409	900.03326	-596.39435	587.06274	1000.72986	-602.23822	487.87625	910.67468	-580.97906	548.11359	1025.03796	-457.87619	405.86499	1009.33136	-507.73526	730.35718	977.24945	-409.15118	570.83661	985.29474	-156.32831	316.88089	957.20337	-157.19304	350.43802	884.88165	107.98744	400.19156	1011.39484	98.99038	339.33621	1026.552	219.33374	395.27911	1020.99756	-339.6586	365.74008	1027.98645	-299.87064	293.56079	929.92731	-365.2363	295.72443	946.05621	-276.4278	361.6409	1010.39087	30.72663	407.33945	1015.14038	77.34206	309.12296	1024.3114	30.92801	308.36093	1018.08655	76.91841	407.38962	1021.95117	173.51866	377.22824	1040.17358	-485.90576	368.33038	1012.29272
